<svg width="0" height="0" class="hidden">
<svg xmlns="http://www.w3.org/2000/svg" id="ru"  version="1.1"  x="0px" y="0px" viewBox="0 0 512 512" style="enable-background:new 0 0 512 512;" xml:space="preserve">
<path style="fill:#F5F5F5;" d="M473.655,88.276H38.345C17.167,88.276,0,105.443,0,126.621v73.471h512v-73.471  C512,105.443,494.833,88.276,473.655,88.276z"/>
<path style="fill:#FF4B55;" d="M0,385.379c0,21.177,17.167,38.345,38.345,38.345h435.31c21.177,0,38.345-17.167,38.345-38.345  v-73.471H0V385.379z"/>
<rect y="200.09" style="fill:#41479B;" width="512" height="111.81"/>
<g>
</g>
<g>
</g>
<g>
</g>
<g>
</g>
<g>
</g>
<g>
</g>
<g>
</g>
<g>
</g>
<g>
</g>
<g>
</g>
<g>
</g>
<g>
</g>
<g>
</g>
<g>
</g>
<g>
</g>
</svg>

<svg xmlns="http://www.w3.org/2000/svg"  version="1.1" id="en" x="0px" y="0px" viewBox="0 0 512 512" style="enable-background:new 0 0 512 512;" xml:space="preserve">
<path style="fill:#41479B;" d="M473.655,88.276H38.345C17.167,88.276,0,105.443,0,126.621V385.38  c0,21.177,17.167,38.345,38.345,38.345h435.31c21.177,0,38.345-17.167,38.345-38.345V126.621  C512,105.443,494.833,88.276,473.655,88.276z"/>
<path style="fill:#F5F5F5;" d="M511.469,120.282c-3.022-18.159-18.797-32.007-37.814-32.007h-9.977l-163.54,107.147V88.276h-88.276  v107.147L48.322,88.276h-9.977c-19.017,0-34.792,13.847-37.814,32.007l139.778,91.58H0v88.276h140.309L0.531,391.717  c3.022,18.159,18.797,32.007,37.814,32.007h9.977l163.54-107.147v107.147h88.276V316.577l163.54,107.147h9.977  c19.017,0,34.792-13.847,37.814-32.007l-139.778-91.58H512v-88.276H371.691L511.469,120.282z"/>
<g>
	<polygon style="fill:#FF4B55;" points="282.483,88.276 229.517,88.276 229.517,229.517 0,229.517 0,282.483 229.517,282.483    229.517,423.724 282.483,423.724 282.483,282.483 512,282.483 512,229.517 282.483,229.517  "/>
	<path style="fill:#FF4B55;" d="M24.793,421.252l186.583-121.114h-32.428L9.224,410.31   C13.377,415.157,18.714,418.955,24.793,421.252z"/>
	<path style="fill:#FF4B55;" d="M346.388,300.138H313.96l180.716,117.305c5.057-3.321,9.277-7.807,12.287-13.075L346.388,300.138z"/>
	<path style="fill:#FF4B55;" d="M4.049,109.475l157.73,102.387h32.428L15.475,95.842C10.676,99.414,6.749,104.084,4.049,109.475z"/>
	<path style="fill:#FF4B55;" d="M332.566,211.862l170.035-110.375c-4.199-4.831-9.578-8.607-15.699-10.86L300.138,211.862H332.566z"/>
</g>
<g>
</g>
<g>
</g>
<g>
</g>
<g>
</g>
<g>
</g>
<g>
</g>
<g>
</g>
<g>
</g>
<g>
</g>
<g>
</g>
<g>
</g>
<g>
</g>
<g>
</g>
<g>
</g>
<g>
</g>
</svg>


<svg xmlns="http://www.w3.org/2000/svg"  version="1.1" id="es" x="0px" y="0px" viewBox="0 0 512 512" style="enable-background:new 0 0 512 512;" xml:space="preserve">
<g>
	<path style="fill:#C8414B;" d="M0,385.379c0,21.177,17.167,38.345,38.345,38.345h435.31c21.177,0,38.345-17.167,38.345-38.345   v-32.276H0V385.379z"/>
	<path style="fill:#C8414B;" d="M473.655,88.276H38.345C17.167,88.276,0,105.443,0,126.621v32.276h512v-32.276   C512,105.443,494.833,88.276,473.655,88.276z"/>
</g>
<rect y="158.9" style="fill:#FFD250;" width="512" height="194.21"/>
<path style="fill:#C8414B;" d="M216.276,256l7.485-33.681c0.69-3.102-1.671-6.044-4.849-6.044h-5.272  c-3.177,0-5.537,2.943-4.849,6.044L216.276,256z"/>
<rect x="207.45" y="238.34" style="fill:#F5F5F5;" width="17.655" height="75.03"/>
<rect x="203.03" y="229.52" style="fill:#FAB446;" width="26.483" height="8.828"/>
<g>
	<rect x="185.38" y="256" style="fill:#C8414B;" width="44.14" height="8.828"/>
	<polygon style="fill:#C8414B;" points="229.517,291.31 203.034,282.483 203.034,273.655 229.517,282.483  "/>
	<path style="fill:#C8414B;" d="M83.862,256l7.485-33.681c0.69-3.102-1.671-6.044-4.849-6.044h-5.272   c-3.177,0-5.537,2.943-4.849,6.044L83.862,256z"/>
</g>
<path style="fill:#F5F5F5;" d="M114.759,229.517c-4.875,0-8.828,3.953-8.828,8.828v57.379c0,10.725,10.01,30.897,44.138,30.897  s44.138-20.171,44.138-30.897v-57.379c0-4.875-3.953-8.828-8.828-8.828H114.759z"/>
<g>
	<path style="fill:#C8414B;" d="M150.069,273.655h-44.138v-35.31c0-4.875,3.953-8.828,8.828-8.828h35.31V273.655z"/>
	<path style="fill:#C8414B;" d="M150.069,273.655h44.138v22.069c0,12.189-9.88,22.069-22.069,22.069l0,0   c-12.189,0-22.069-9.88-22.069-22.069V273.655z"/>
</g>
<path style="fill:#FAB446;" d="M105.931,273.655h44.138v22.069c0,12.189-9.88,22.069-22.069,22.069l0,0  c-12.189,0-22.069-9.88-22.069-22.069V273.655z"/>
<g>
	<path style="fill:#C8414B;" d="M141.241,313.28v-39.625h-8.828v43.693C135.697,316.682,138.664,315.228,141.241,313.28z"/>
	<path style="fill:#C8414B;" d="M123.586,317.348v-43.693h-8.828v39.625C117.336,315.228,120.303,316.682,123.586,317.348z"/>
</g>
<rect x="114.76" y="256" style="fill:#FFB441;" width="26.483" height="8.828"/>
<g>
	<rect x="114.76" y="238.34" style="fill:#FAB446;" width="26.483" height="8.828"/>
	<rect x="119.17" y="243.59" style="fill:#FAB446;" width="17.655" height="15.992"/>
</g>
<rect x="75.03" y="238.34" style="fill:#F5F5F5;" width="17.655" height="75.03"/>
<g>
	<rect x="70.62" y="308.97" style="fill:#FAB446;" width="26.483" height="8.828"/>
	<rect x="70.62" y="229.52" style="fill:#FAB446;" width="26.483" height="8.828"/>
</g>
<rect x="66.21" y="317.79" style="fill:#5064AA;" width="35.31" height="8.828"/>
<rect x="207.45" y="308.97" style="fill:#FAB446;" width="26.483" height="8.828"/>
<rect x="198.62" y="317.79" style="fill:#5064AA;" width="35.31" height="8.828"/>
<rect x="123.59" y="220.69" style="fill:#FAB446;" width="52.966" height="8.828"/>
<rect x="145.66" y="194.21" style="fill:#FFB441;" width="8.828" height="26.483"/>
<g>
	<path style="fill:#F5F5F5;" d="M141.241,207.448c-7.302,0-13.241-5.94-13.241-13.241c0-7.302,5.94-13.241,13.241-13.241   c7.302,0,13.241,5.94,13.241,13.241C154.483,201.508,148.543,207.448,141.241,207.448z M141.241,189.793   c-2.435,0-4.414,1.978-4.414,4.414c0,2.435,1.978,4.414,4.414,4.414s4.414-1.978,4.414-4.414   C145.655,191.772,143.677,189.793,141.241,189.793z"/>
	<path style="fill:#F5F5F5;" d="M158.897,207.448c-7.302,0-13.241-5.94-13.241-13.241c0-7.302,5.94-13.241,13.241-13.241   c7.302,0,13.241,5.94,13.241,13.241S166.198,207.448,158.897,207.448z M158.897,189.793c-2.435,0-4.414,1.978-4.414,4.414   c0,2.435,1.978,4.414,4.414,4.414c2.435,0,4.414-1.978,4.414-4.414C163.31,191.772,161.332,189.793,158.897,189.793z"/>
	<path style="fill:#F5F5F5;" d="M176.552,216.276c-7.302,0-13.241-5.94-13.241-13.241c0-7.302,5.94-13.241,13.241-13.241   c7.302,0,13.241,5.94,13.241,13.241S183.853,216.276,176.552,216.276z M176.552,198.621c-2.435,0-4.414,1.978-4.414,4.414   c0,2.435,1.978,4.414,4.414,4.414c2.435,0,4.414-1.978,4.414-4.414S178.987,198.621,176.552,198.621z"/>
	<path style="fill:#F5F5F5;" d="M123.586,216.276c-7.302,0-13.241-5.94-13.241-13.241c0-7.302,5.94-13.241,13.241-13.241   c7.302,0,13.241,5.94,13.241,13.241C136.828,210.336,130.888,216.276,123.586,216.276z M123.586,198.621   c-2.435,0-4.414,1.978-4.414,4.414c0,2.435,1.978,4.414,4.414,4.414S128,205.47,128,203.034   C128,200.599,126.022,198.621,123.586,198.621z"/>
</g>
<path style="fill:#FAB446;" d="M176.552,291.31v4.414c0,2.434-1.98,4.414-4.414,4.414s-4.414-1.98-4.414-4.414v-4.414H176.552   M185.379,282.483h-26.483v13.241c0,7.302,5.94,13.241,13.241,13.241c7.302,0,13.241-5.94,13.241-13.241v-13.241H185.379z"/>
<path style="fill:#FFA0D2;" d="M172.138,264.828L172.138,264.828c-4.875,0-8.828-3.953-8.828-8.828v-8.828  c0-4.875,3.953-8.828,8.828-8.828l0,0c4.875,0,8.828,3.953,8.828,8.828V256C180.966,260.875,177.013,264.828,172.138,264.828z"/>
<circle style="fill:#5064AA;" cx="150.07" cy="273.65" r="13.241"/>
<rect x="145.66" y="176.55" style="fill:#FAB446;" width="8.828" height="26.483"/>
<path style="fill:#C8414B;" d="M123.586,220.69l-8.828-8.828l5.171-5.171c7.993-7.993,18.835-12.484,30.14-12.484l0,0  c11.305,0,22.146,4.491,30.14,12.484l5.171,5.171l-8.828,8.828H123.586z"/>
<g>
	<circle style="fill:#FFD250;" cx="150.07" cy="211.86" r="4.414"/>
	<circle style="fill:#FFD250;" cx="132.41" cy="211.86" r="4.414"/>
	<circle style="fill:#FFD250;" cx="167.72" cy="211.86" r="4.414"/>
</g>
<g>
	<rect x="70.62" y="256" style="fill:#C8414B;" width="44.14" height="8.828"/>
	<polygon style="fill:#C8414B;" points="70.621,291.31 97.103,282.483 97.103,273.655 70.621,282.483  "/>
</g>
<g>
</g>
<g>
</g>
<g>
</g>
<g>
</g>
<g>
</g>
<g>
</g>
<g>
</g>
<g>
</g>
<g>
</g>
<g>
</g>
<g>
</g>
<g>
</g>
<g>
</g>
<g>
</g>
<g>
</g>
</svg>


<svg xmlns="http://www.w3.org/2000/svg"  version="1.1" id="de" x="0px" y="0px" viewBox="0 0 512 512" style="enable-background:new 0 0 512 512;" xml:space="preserve">
<path style="fill:#464655;" d="M473.655,88.276H38.345C17.167,88.276,0,105.443,0,126.621v73.471h512v-73.471  C512,105.443,494.833,88.276,473.655,88.276z"/>
<path style="fill:#FFE15A;" d="M0,385.379c0,21.177,17.167,38.345,38.345,38.345h435.31c21.177,0,38.345-17.167,38.345-38.345  v-73.471H0V385.379z"/>
<rect y="200.09" style="fill:#FF4B55;" width="512" height="111.81"/>
<g>
</g>
<g>
</g>
<g>
</g>
<g>
</g>
<g>
</g>
<g>
</g>
<g>
</g>
<g>
</g>
<g>
</g>
<g>
</g>
<g>
</g>
<g>
</g>
<g>
</g>
<g>
</g>
<g>
</g>
</svg>

<svg xmlns="http://www.w3.org/2000/svg" version="1.1" id="it" x="0px" y="0px" viewBox="0 0 512 512" style="enable-background:new 0 0 512 512;" xml:space="preserve">
<path style="fill:#73AF00;" d="M38.345,88.273C17.167,88.273,0,105.44,0,126.618v258.759c0,21.177,17.167,38.345,38.345,38.345  h132.322V88.273H38.345z"/>
<rect x="170.67" y="88.277" style="fill:#F5F5F5;" width="170.67" height="335.45"/>
<path style="fill:#FF4B55;" d="M473.655,88.273H341.333v335.448h132.322c21.177,0,38.345-17.167,38.345-38.345V126.618  C512,105.44,494.833,88.273,473.655,88.273z"/>
<g>
</g>
<g>
</g>
<g>
</g>
<g>
</g>
<g>
</g>
<g>
</g>
<g>
</g>
<g>
</g>
<g>
</g>
<g>
</g>
<g>
</g>
<g>
</g>
<g>
</g>
<g>
</g>
<g>
</g>
</svg>

<svg xmlns="http://www.w3.org/2000/svg"  version="1.1" id="pl" x="0px" y="0px" viewBox="0 0 512 512" style="enable-background:new 0 0 512 512;" xml:space="preserve">
<path style="fill:#FF4B55;" d="M0,385.379c0,21.177,17.167,38.345,38.345,38.345h435.31c21.177,0,38.345-17.167,38.345-38.345V256H0  V385.379z"/>
<path style="fill:#F5F5F5;" d="M473.655,88.276H38.345C17.167,88.276,0,105.443,0,126.621V256h512V126.621  C512,105.443,494.833,88.276,473.655,88.276z"/>
<g>
</g>
<g>
</g>
<g>
</g>
<g>
</g>
<g>
</g>
<g>
</g>
<g>
</g>
<g>
</g>
<g>
</g>
<g>
</g>
<g>
</g>
<g>
</g>
<g>
</g>
<g>
</g>
<g>
</g>
</svg>

<svg xmlns="http://www.w3.org/2000/svg" id="arrow" viewBox="0 0 10 6" fill="none">
<path d="M1.45442 4.81225C1.06285 5.11842 0.497225 5.0492 0.19105 4.65763C-0.115124 4.26607 -0.0459015 3.70044 0.345663 3.39427L4.4423 0.190996C4.76791 -0.0636034 5.22507 -0.0636926 5.55078 0.190779L9.65074 3.39405C10.0424 3.70007 10.1119 4.26567 9.80585 4.65735C9.49983 5.04904 8.93423 5.11848 8.54255 4.81246L4.99691 2.04228L1.45442 4.81225Z" fill="#333333"/>
</svg>

<svg xmlns="http://www.w3.org/2000/svg" id="cancel" viewBox="0 0 8 8" fill="none">
<path d="M7.55231 0.447703C7.81591 0.711307 7.81591 1.13869 7.55231 1.4023L4.95475 4L7.55231 6.59771C7.79394 6.83935 7.81408 7.21861 7.61272 7.48318L7.55231 7.55231C7.2887 7.81591 6.86132 7.81591 6.59771 7.55231L4 4.95475L1.4023 7.55231C1.13869 7.81591 0.711307 7.81591 0.447703 7.55231C0.184099 7.2887 0.184099 6.86132 0.447703 6.59771L3.04525 4L0.447703 1.4023C0.206066 1.16066 0.18593 0.781401 0.387294 0.516826L0.447703 0.447703C0.711307 0.184099 1.13869 0.184099 1.4023 0.447703L4 3.04525L6.59771 0.447703C6.86132 0.184099 7.2887 0.184099 7.55231 0.447703Z" fill="#333333"/>
</svg>

<svg xmlns="http://www.w3.org/2000/svg" id="search" viewBox="0 0 14 15" fill="none">
<path d="M5.50006 0C8.53765 0 11.0001 2.46256 11.0001 5.50029C11.0001 6.74868 10.5842 7.89993 9.88346 8.82304L13.7791 12.7233C14.0718 13.0164 14.0715 13.4913 13.7785 13.784C13.4854 14.0767 13.0105 14.0764 12.7178 13.7834L8.82266 9.88388C7.89959 10.5847 6.74839 11.0006 5.50006 11.0006C2.46246 11.0006 0 8.53802 0 5.50029C0 2.46256 2.46246 0 5.50006 0ZM5.50006 1.5C3.2909 1.5 1.5 3.29098 1.5 5.50029C1.5 7.70961 3.2909 9.50058 5.50006 9.50058C7.70921 9.50058 9.50011 7.70961 9.50011 5.50029C9.50011 3.29098 7.70921 1.5 5.50006 1.5Z" fill="#C1C1C1"/>
</svg>

</svg>