<svg xmlns="http://www.w3.org/2000/svg" width="24" height="24" viewBox="0 0 24 24" fill="none">
<path d="M0 4C0 1.79086 1.79086 0 4 0H20C22.2091 0 24 1.79086 24 4V20C24 22.2091 22.2091 24 20 24H4C1.79086 24 0 22.2091 0 20V4Z" fill="#005FFD"/>
<path fill-rule="evenodd" clip-rule="evenodd" d="M19.0213 7.47872C18.383 6.84043 17.4255 6.84043 16.7872 7.47872L10.4043 13.8617L7.21277 10.6702C6.57447 10.0319 5.61702 10.0319 4.97872 10.6702C4.34043 11.3085 4.34043 12.266 4.97872 12.9043L9.28723 17.2128C9.60638 17.5319 9.92553 17.6915 10.4043 17.6915C10.883 17.6915 11.2021 17.5319 11.5213 17.2128L19.0213 9.71277C19.6596 9.07447 19.6596 8.11702 19.0213 7.47872Z" fill="white"/>
<path d="M4 2H20V-2H4V2ZM22 4V20H26V4H22ZM20 22H4V26H20V22ZM2 20V4H-2V20H2ZM4 22C2.89543 22 2 21.1046 2 20H-2C-2 23.3137 0.686292 26 4 26V22ZM22 20C22 21.1046 21.1046 22 20 22V26C23.3137 26 26 23.3137 26 20H22ZM20 2C21.1046 2 22 2.89543 22 4H26C26 0.686291 23.3137 -2 20 -2V2ZM4 -2C0.686291 -2 -2 0.686292 -2 4H2C2 2.89543 2.89543 2 4 2V-2Z" fill="#0049D9"/>
</svg>